<svg width="10" height="10" viewBox="0 0 10 10" fill="none" xmlns="http://www.w3.org/2000/svg">
<path d="M5.70703 4.99996L9.24253 8.53546C9.43803 8.73096 9.43803 9.04746 9.24253 9.24246C9.04702 9.43746 8.73052 9.43796 8.53552 9.24246L5.00003 5.70696L1.46453 9.24246C1.26903 9.43796 0.952526 9.43796 0.757526 9.24246C0.562526 9.04696 0.562026 8.73046 0.757526 8.53546L4.29303 4.99996L0.757526 1.46446C0.562026 1.26896 0.562026 0.952465 0.757526 0.757465C0.953026 0.562465 1.26953 0.561965 1.46453 0.757465L5.00003 4.29296L8.53552 0.757465C8.73102 0.561965 9.04753 0.561965 9.24253 0.757465C9.43752 0.952965 9.43803 1.26946 9.24253 1.46446L5.70703 4.99996Z" fill="#494C53"/>
</svg>
