<svg width="16" height="16" viewBox="0 0 16 16" fill="none" xmlns="http://www.w3.org/2000/svg">
<path fill-rule="evenodd" clip-rule="evenodd" d="M12 12.6668C12 13.0342 11.7013 13.3335 11.3333 13.3335H4.66665C4.29865 13.3335 3.99998 13.0342 3.99998 12.6668V5.3335H12V12.6668ZM6.66665 2.8855C6.66665 2.78216 6.80931 2.66683 6.99998 2.66683H8.99998C9.19065 2.66683 9.33331 2.78216 9.33331 2.8855V4.00016H6.66665V2.8855ZM14 4.00016H13.3333H10.6666V2.8855C10.6666 2.0295 9.91931 1.3335 8.99998 1.3335H6.99998C6.08065 1.3335 5.33331 2.0295 5.33331 2.8855V4.00016H2.66665H1.99998C1.63331 4.00016 1.33331 4.30016 1.33331 4.66683C1.33331 5.0335 1.63331 5.3335 1.99998 5.3335H2.66665V12.6668C2.66665 13.7695 3.56398 14.6668 4.66665 14.6668H11.3333C12.436 14.6668 13.3333 13.7695 13.3333 12.6668V5.3335H14C14.3666 5.3335 14.6666 5.0335 14.6666 4.66683C14.6666 4.30016 14.3666 4.00016 14 4.00016Z" fill="#494C53"/>
<mask id="mask0" mask-type="alpha" maskUnits="userSpaceOnUse" x="1" y="1" width="14" height="14">
<path fill-rule="evenodd" clip-rule="evenodd" d="M12 12.6668C12 13.0342 11.7013 13.3335 11.3333 13.3335H4.66665C4.29865 13.3335 3.99998 13.0342 3.99998 12.6668V5.3335H12V12.6668ZM6.66665 2.8855C6.66665 2.78216 6.80931 2.66683 6.99998 2.66683H8.99998C9.19065 2.66683 9.33331 2.78216 9.33331 2.8855V4.00016H6.66665V2.8855ZM14 4.00016H13.3333H10.6666V2.8855C10.6666 2.0295 9.91931 1.3335 8.99998 1.3335H6.99998C6.08065 1.3335 5.33331 2.0295 5.33331 2.8855V4.00016H2.66665H1.99998C1.63331 4.00016 1.33331 4.30016 1.33331 4.66683C1.33331 5.0335 1.63331 5.3335 1.99998 5.3335H2.66665V12.6668C2.66665 13.7695 3.56398 14.6668 4.66665 14.6668H11.3333C12.436 14.6668 13.3333 13.7695 13.3333 12.6668V5.3335H14C14.3666 5.3335 14.6666 5.0335 14.6666 4.66683C14.6666 4.30016 14.3666 4.00016 14 4.00016Z" fill="white"/>
</mask>
<g mask="url(#mask0)">
</g>
</svg>
