<svg width="16" height="12" viewBox="0 0 16 12" fill="none" xmlns="http://www.w3.org/2000/svg">
<path d="M3 6H8.999V7H3V6ZM3 9H8.999V8H3V9ZM14 2.5C14 2.224 13.776 2 13.5 2H11.5C11.224 2 11 2.224 11 2.5V3.5C11 3.776 11.224 4 11.5 4H13.5C13.776 4 14 3.776 14 3.5V2.5ZM16 3V9C16 10.6575 14.6575 12 13 12H3C1.3425 12 0 10.6575 0 9V3C0 1.343 1.3425 0 3 0H13C14.6575 0 16 1.343 16 3ZM15 9V3C15 1.8945 14.1035 1 13 1H3C1.8965 1 1 1.8945 1 3V9C1 10.1055 1.8965 11 3 11H13C14.1035 11 15 10.1055 15 9Z" fill="#494C53"/>
</svg>
