<svg width="16" height="16" viewBox="0 0 16 16" fill="none" xmlns="http://www.w3.org/2000/svg">
<path d="M7.10001 13.2021C7.17501 13.1271 7.28251 13.0936 7.38701 13.1126C7.53001 13.1391 7.67401 13.1606 7.81801 13.1771C7.94101 13.1911 8.04551 13.2746 8.08601 13.3916C8.12701 13.5086 8.09701 13.6386 8.00951 13.7261L6.92401 14.8116C5.34001 16.3956 2.77151 16.3956 1.18751 14.8116C-0.396488 13.2276 -0.396488 10.6591 1.18751 9.07506L4.77251 5.49006C6.35651 3.90606 8.92501 3.90606 10.509 5.49006C10.8335 5.81456 11.083 6.18256 11.271 6.57356C11.3305 6.69706 11.3055 6.84506 11.2085 6.94206L10.934 7.21656C10.8585 7.29206 10.7505 7.32506 10.6455 7.30556C10.5405 7.28556 10.452 7.21506 10.4095 7.11706C10.266 6.78706 10.0625 6.47806 9.79201 6.20756C8.60601 5.02156 6.67601 5.02156 5.48951 6.20756L1.90451 9.79256C0.718512 10.9786 0.718512 12.9086 1.90451 14.0951C3.09051 15.2816 5.02051 15.2811 6.20701 14.0951L7.10001 13.2021ZM9.07551 1.18806L7.98651 2.27706C7.89901 2.36456 7.86901 2.49456 7.91001 2.61156C7.95101 2.72856 8.05501 2.81206 8.17801 2.82606C8.32201 2.84256 8.46601 2.86456 8.60901 2.89106C8.71351 2.91056 8.82101 2.87706 8.89601 2.80156L9.79251 1.90506C10.9785 0.719063 12.9085 0.719063 14.0945 1.90506C15.2805 3.09106 15.2805 5.02106 14.0945 6.20706L10.5095 9.79206C9.32351 10.9781 7.39351 10.9781 6.20701 9.79206C5.93701 9.52206 5.73351 9.21256 5.59101 8.88206C5.54851 8.78406 5.46051 8.71306 5.35501 8.69306C5.25001 8.67306 5.14151 8.70606 5.06601 8.78156L4.79151 9.05606C4.69501 9.15256 4.66951 9.29956 4.72801 9.42306C4.91401 9.81556 5.16451 10.1841 5.48951 10.5091C7.07351 12.0931 9.64201 12.0931 11.226 10.5091L14.811 6.92406C16.395 5.34006 16.395 2.77156 14.811 1.18756C13.228 -0.395937 10.6595 -0.395937 9.07551 1.18806Z" fill="#F0F2F6"/>
</svg>
