<svg width="12" height="16" viewBox="0 0 12 16" fill="none" xmlns="http://www.w3.org/2000/svg">
<path d="M2 0C0.8955 0 0 0.8955 0 2V10V14C0 15.1045 0.8955 16 2 16H10C11.1045 16 12 15.1045 12 14V2C12 0.8955 11.1045 0 10 0H2ZM7 14.25C7 14.664 6.664 15 6.25 15H5.75C5.336 15 5 14.664 5 14.25V13.75C5 13.336 5.336 13 5.75 13H6.25C6.664 13 7 13.336 7 13.75V14.25ZM11 11C11 11.5525 10.552 12 10 12H2C1.448 12 1 11.5525 1 11V2C1 1.448 1.4485 1 2 1H10C10.5525 1 11 1.4475 11 2V11Z" fill="#494C53"/>
</svg>
