<svg width="16" height="16" viewBox="0 0 16 16" fill="none" xmlns="http://www.w3.org/2000/svg">
<path d="M16 0.5V0.708V7.5C16 7.7765 15.7765 8 15.5 8C15.2235 8 15 7.7765 15 7.5V1.708L6.455 10.253C6.2595 10.4495 5.9435 10.4495 5.748 10.253C5.5525 10.0575 5.5525 9.7425 5.748 9.546L14.293 1H8.5C8.2235 1 8 0.7765 8 0.5C8 0.2235 8.2235 0 8.5 0H15.293H15.5C15.7765 0 16 0.2235 16 0.5ZM12 7.5355V13C12 14.103 11.103 15 10 15H3C1.897 15 1 14.103 1 13V6C1 4.897 1.897 4 3 4H8.4645L9.4645 3H3C1.343 3 0 4.343 0 6V13C0 14.657 1.343 16 3 16H10C11.657 16 13 14.657 13 13V6.5355L12 7.5355Z" fill="#494C53"/>
</svg>
